# xmcd
#
# Track frame offsets:
#	150
#	12423
#	23191
#	36878
#	51513
#	71638
#	86255
#	101126
#	112530
#	131520
#	153386
#	161578
#	175570
#
# Disc length: 2536 seconds
# Revision: 2
# Processed by: cddbd v1.5.2PL0 Copyright (c) Steve Scherf et al.
# Submitted via: dBpowerAMP V12.0
#
DISCID=9c09e60d
DTITLE=Various Artist - Long Lost Suitcase
DYEAR=2015
DGENRE=Blues Rock
TTITLE0=Tom Jones - Opportunity to Cry
TTITLE1=Tom Jones, Imelda May - Honey, Honey
TTITLE2=Tom Jones - Take My Love (I Want to Give It)
TTITLE3=Tom Jones - Bring it On Home
TTITLE4=Tom Jones - Everybody Loves a Train
TTITLE5=Tom Jones - Elvis Presley Blues
TTITLE6=Tom Jones - He Was a Friend of Mine
TTITLE7=Tom Jones - Factory Girl
TTITLE8=Tom Jones - I Wish You Would
TTITLE9=Tom Jones - 'Til My Back Ain't Got No Bone
TTITLE10=Tom Jones - Why Don't You Love Me Like You Used to?
TTITLE11=Tom Jones - Tomorrow Night
TTITLE12=Tom Jones - Raise a Ruckus
EXTD=
EXTT0=
EXTT1=
EXTT2=
EXTT3=
EXTT4=
EXTT5=
EXTT6=
EXTT7=
EXTT8=
EXTT9=
EXTT10=
EXTT11=
EXTT12=
PLAYORDER=
